<?xml version="1.0" standalone="no"?>
<!DOCTYPE svg PUBLIC "-//W3C//DTD SVG 20010904//EN"
 "http://www.w3.org/TR/2001/REC-SVG-20010904/DTD/svg10.dtd">
<svg version="1.0" xmlns="http://www.w3.org/2000/svg"
 width="262.000000pt" height="304.000000pt" viewBox="0 0 262.000000 304.000000"
 preserveAspectRatio="xMidYMid meet">

<g transform="translate(0.000000,304.000000) scale(0.100000,-0.100000)"
fill="#000000" stroke="none">
<path d="M161 2896 c-53 -29 -50 40 -51 -1418 l0 -1356 31 -31 31 -31 1157 0
c1053 0 1159 1 1180 16 53 38 51 -19 51 1401 0 873 -4 1331 -10 1355 -6 22
-23 46 -39 58 -29 20 -37 20 -1178 20 -934 -1 -1152 -3 -1172 -14z m1424 -308
c132 -134 312 -317 400 -408 l160 -165 -1 -185 c0 -102 -4 -194 -7 -205 -4
-11 -187 -200 -407 -420 l-400 -400 -405 406 -405 405 0 202 0 202 401 405
c221 223 407 405 413 405 6 0 119 -109 251 -242z m-259 -2175 l10 -48 8 48 c7
37 12 47 27 47 17 0 19 -8 17 -97 l-2 -98 -5 80 c-6 86 -15 80 -27 -17 -8 -72
-29 -78 -38 -10 -15 104 -21 111 -27 27 l-5 -80 -2 98 c-2 88 0 97 16 97 14 0
21 -12 28 -47z"/>
<path d="M1095 1590 c126 -126 232 -230 235 -230 3 0 111 104 240 230 l235
229 -470 0 -470 1 230 -230z"/>
</g>
</svg>
